HIERARCHY
ROOT Hips
{
	OFFSET 0.000000 0.000000 0.000000
	CHANNELS 6 Xposition Yposition Zposition Yrotation Xrotation Zrotation 
	JOINT LeftHip
	{
		OFFSET 0.087450 0.000284 -0.000032
		CHANNELS 3 Yrotation Xrotation Zrotation
		JOINT LeftKnee
		{
			OFFSET 0.000000 -0.456155 0.000080
			CHANNELS 3 Yrotation Xrotation Zrotation
			JOINT LeftAnkle
			{
				OFFSET 0.000000 -0.392056 0.000378
				CHANNELS 3 Yrotation Xrotation Zrotation
				JOINT LeftToe
				{
					OFFSET 0.000000 -0.079886 0.174677
					CHANNELS 3 Yrotation Xrotation Zrotation
					End Site
					{
						OFFSET 0.000000 0.000000 0.000000
					}
				}
			}
		}
	}
	JOINT RightHip
	{
		OFFSET -0.087450 0.000305 -0.000034
		CHANNELS 3 Yrotation Xrotation Zrotation
		JOINT RightKnee
		{
			OFFSET 0.000000 -0.456155 0.000080
			CHANNELS 3 Yrotation Xrotation Zrotation
			JOINT RightAnkle
			{
				OFFSET 0.000000 -0.392056 0.000378
				CHANNELS 3 Yrotation Xrotation Zrotation
				JOINT RightToe
				{
					OFFSET 0.000000 -0.079886 0.174677
					CHANNELS 3 Yrotation Xrotation Zrotation
					End Site
					{
						OFFSET 0.000000 0.000000 0.000000
					}
				}
			}
		}
	}
	JOINT Chest
	{
		OFFSET 0.000000 0.105774 -0.011753
		CHANNELS 3 Yrotation Xrotation Zrotation
		JOINT Chest3
		{
			OFFSET 0.000000 0.191987 -0.009445
			CHANNELS 3 Yrotation Xrotation Zrotation
			JOINT Chest4
			{
				OFFSET 0.000000 0.091765 -0.000120
				CHANNELS 3 Yrotation Xrotation Zrotation
				JOINT Neck
				{
					OFFSET 0.000000 0.125437 0.000000
					CHANNELS 3 Yrotation Xrotation Zrotation
					JOINT Head
					{
						OFFSET 0.000000 0.087991 0.000056
						CHANNELS 3 Yrotation Xrotation Zrotation
						End Site
						{
							OFFSET 0.000000 0.000000 0.000000
						}
					}
				}
				JOINT LeftCollar
				{
					OFFSET 0.025606 0.070386 0.000000
					CHANNELS 3 Yrotation Xrotation Zrotation
					JOINT LeftShoulder
					{
						OFFSET 0.123264 0.000000 0.000000
						CHANNELS 3 Yrotation Xrotation Zrotation
						JOINT LeftElbow
						{
							OFFSET 0.282857 0.000000 0.000000
							CHANNELS 3 Yrotation Xrotation Zrotation
							JOINT LeftWrist
							{
								OFFSET 0.211242 0.000000 0.000104
								CHANNELS 3 Yrotation Xrotation Zrotation
								End Site
								{
									OFFSET 0.000000 0.000000 0.000000
								}
							}
						}
					}
				}
				JOINT RightCollar
				{
					OFFSET -0.025606 0.070386 0.000000
					CHANNELS 3 Yrotation Xrotation Zrotation
					JOINT RightShoulder
					{
						OFFSET -0.123264 0.000000 0.000000
						CHANNELS 3 Yrotation Xrotation Zrotation
						JOINT RightElbow
						{
							OFFSET -0.282857 0.000000 0.000000
							CHANNELS 3 Yrotation Xrotation Zrotation
							JOINT RightWrist
							{
								OFFSET -0.211242 0.000000 0.000104
								CHANNELS 3 Yrotation Xrotation Zrotation
								End Site
								{
									OFFSET 0.000000 0.000000 0.000000
								}
							}
						}
					}
				}
			}
		}
	}
}
MOTION
Frames: 7
Frame Time: 0.016667
0.000000 0.000000 0.000000 -172.498681 0.285021 -1.318205 12.087482 0.374437 6.099237 -1.000868 0.549933 0.456299 -11.426473 -0.740932 -5.371982 -0.007679 -1.843470 0.477261 -23.789490 2.103377 0.287721 -2.132526 5.631662 -0.777821 -21.050409 -3.370563 3.050662 -0.034408 -2.887533 1.365132 -0.966282 4.678221 2.616788 -1.105998 -1.671141 2.324149 -0.348320 7.386587 0.844868 -2.343272 8.521002 -0.550869 -4.340084 -20.184001 0.065135 -1.484698 -2.096661 -10.091086 -2.190530 -12.214268 -75.205516 -74.878212 -17.293368 -17.228751 16.846138 -2.002686 14.552269 0.044352 -1.964060 5.583852 -9.184380 -11.923927 76.521092 75.506391 -12.437770 22.264377 -12.259330 3.806736 -16.310185 
0.000000 0.000000 0.000000 -172.755173 0.321642 -1.370573 12.003791 0.636650 5.864570 -1.026068 0.286971 0.392785 -10.955918 -1.026716 -4.990181 -0.003783 -1.226141 0.331949 -23.858180 2.073826 0.060132 -2.128106 5.398587 -0.795915 -20.715452 -3.188588 3.219877 -0.017116 -1.988368 0.971945 -0.906168 4.650612 2.586612 -1.049647 -1.695637 2.297235 -0.327722 7.377756 0.836327 -2.311674 8.549018 -0.539561 -4.282615 -20.132409 0.070875 -1.519593 -2.043463 -10.076033 -1.746710 -12.104610 -75.125149 -74.822617 -17.239947 -17.516067 16.833139 -2.010179 14.613809 0.020211 -1.950968 5.596553 -9.285203 -11.732033 76.403091 75.498266 -12.481783 22.491578 -12.217955 3.797357 -16.248232 
0.000000 0.000000 0.000000 -173.012777 0.362850 -1.430519 11.880640 0.920910 5.643769 -0.987175 -0.032612 0.317412 -10.514684 -1.289801 -4.596645 -0.000853 -0.510701 0.139291 -23.907580 2.054959 -0.160378 -2.134065 5.139121 -0.812427 -20.373647 -2.975395 3.416739 -0.003201 -0.833844 0.409921 -0.851366 4.619348 2.559213 -0.998276 -1.723387 2.272816 -0.308916 7.367667 0.828577 -2.276553 8.583357 -0.529324 -4.217521 -20.069200 0.072588 -1.561721 -1.975873 -10.051809 -1.289048 -11.977646 -75.039364 -74.758664 -17.168157 -17.742533 16.827556 -2.031285 14.748366 -0.006523 -1.938778 5.618431 -9.360662 -11.545388 76.303106 75.458997 -12.523570 22.707910 -12.168227 3.785894 -16.172112 
0.000000 0.000000 0.000000 -173.273593 0.419444 -1.469590 11.778467 1.186503 5.408434 -1.009044 -0.383594 0.216887 -10.055207 -1.462708 -4.210837 0.000000 -0.000000 0.000000 -23.880932 1.980162 -0.392737 -2.165798 4.931065 -0.819781 -20.077766 -2.794484 3.625329 0.000000 -0.000000 0.000000 -0.798676 4.585083 2.525095 -0.948146 -1.753830 2.242458 -0.290750 7.356572 0.818547 -2.243994 8.615063 -0.523087 -4.155617 -20.010935 0.067824 -1.604321 -1.914320 -10.017796 -0.845356 -11.837102 -74.955817 -74.657463 -17.124592 -17.936021 16.844820 -2.061663 14.953766 -0.015264 -1.928108 5.643399 -9.466355 -11.370390 76.230524 75.409550 -12.563146 22.938176 -12.129021 3.772513 -16.126614 
0.000000 0.000000 0.000000 -173.549014 0.493838 -1.482072 11.726998 1.442892 5.162022 -1.151798 -0.804132 0.074072 -9.543449 -1.487062 -3.839737 0.000130 0.136597 -0.035179 -23.738664 1.841212 -0.641671 -2.232684 4.782354 -0.813164 -19.846126 -2.675283 3.843314 0.000064 0.213966 -0.100921 -0.743040 4.546254 2.483179 -0.894657 -1.788350 2.205185 -0.271508 7.343972 0.806003 -2.215554 8.644478 -0.522965 -4.098930 -19.957001 0.053165 -1.640035 -1.860617 -9.969466 -0.437700 -11.677829 -74.889233 -74.501235 -17.101640 -18.082265 16.893709 -2.097635 15.253493 -0.001185 -1.911152 5.670813 -9.629120 -11.217233 76.193936 75.349731 -12.593668 23.189969 -12.106934 3.760526 -16.114717 
0.000000 0.000000 0.000000 -173.827593 0.583928 -1.473932 11.695964 1.680585 4.901590 -1.355266 -1.256156 -0.090506 -9.010077 -1.421712 -3.474711 0.000103 0.068298 -0.017590 -23.519972 1.647078 -0.902722 -2.324795 4.685614 -0.798752 -19.661003 -2.588002 4.071926 0.000110 0.106995 -0.050433 -0.689516 4.504400 2.434547 -0.842406 -1.825583 2.161971 -0.252906 7.330353 0.791180 -2.189698 8.671254 -0.526859 -4.045466 -19.908016 0.031996 -1.676251 -1.812853 -9.911269 -0.044130 -11.504300 -74.824892 -74.307001 -17.106729 -18.196241 16.964483 -2.145189 15.623971 0.030897 -1.895790 5.701346 -9.822031 -11.075342 76.184717 75.279363 -12.621495 23.455694 -12.095361 3.746413 -16.133384 
0.000000 0.000000 0.000000 -174.077111 0.694003 -1.434266 11.655747 1.830115 4.590486 -1.563408 -1.598988 -0.235767 -8.504608 -1.375000 -3.112770 0.000000 -0.000000 0.000000 -23.285725 1.357021 -1.180693 -2.427638 4.695688 -0.786459 -19.520977 -2.507017 4.299725 0.000000 -0.000000 0.000000 -0.650088 4.464806 2.372895 -0.801467 -1.860866 2.107258 -0.238941 7.317432 0.771684 -2.167899 8.685417 -0.531342 -4.000052 -19.882360 0.012105 -1.728408 -1.785912 -9.855828 0.373734 -11.334946 -74.726321 -74.096735 -17.208063 -18.351241 17.044393 -2.213498 15.992458 0.087062 -1.906291 5.730977 -10.019994 -10.919966 76.186257 75.219325 -12.666733 23.737395 -12.093217 3.719792 -16.218343 
